<svg width="36" height="36" viewBox="0 0 36 36" fill="currentColor" xmlns="http://www.w3.org/2000/svg">
<path fill-rule="evenodd" clip-rule="evenodd" d="M17.046 31.4044L17.1363 31.457L17.1724 31.478C17.3156 31.5569 17.4758 31.5982 17.6386 31.5982C17.8014 31.5982 17.9616 31.5569 18.1048 31.478L18.1409 31.4583L18.2325 31.4044C18.7369 31.0998 19.229 30.7746 19.7078 30.4298C20.9472 29.5385 22.1052 28.5352 23.1678 27.4321C25.6748 24.8181 28.2785 20.8905 28.2785 15.8371C28.2785 12.9629 27.1576 10.2065 25.1624 8.17411C23.1671 6.14176 20.461 5 17.6393 5C14.8176 5 12.1114 6.14176 10.1162 8.17411C8.12092 10.2065 7 12.9629 7 15.8371C7 20.8892 9.60501 24.8181 12.1107 27.4321C13.1729 28.5351 14.3305 29.5384 15.5694 30.4298C16.0486 30.7747 16.5412 31.0998 17.046 31.4044ZM17.6393 19.7779C18.6653 19.7779 19.6494 19.3627 20.3749 18.6236C21.1005 17.8846 21.5081 16.8823 21.5081 15.8371C21.5081 14.7919 21.1005 13.7896 20.3749 13.0506C19.6494 12.3115 18.6653 11.8963 17.6393 11.8963C16.6132 11.8963 15.6291 12.3115 14.9036 13.0506C14.1781 13.7896 13.7704 14.7919 13.7704 15.8371C13.7704 16.8823 14.1781 17.8846 14.9036 18.6236C15.6291 19.3627 16.6132 19.7779 17.6393 19.7779Z" fill="currentColor"/>
</svg>
