<svg width="16" height="17" viewBox="0 0 16 17" fill="none" xmlns="http://www.w3.org/2000/svg">
  <path d="M3.33962 7.69824L4.33962 4.69824H11.673L12.673 7.69824M11.673 11.0316C11.4077 11.0316 11.1534 10.9262 10.9658 10.7387C10.7783 10.5511 10.673 10.2968 10.673 10.0316C10.673 9.76636 10.7783 9.512 10.9658 9.32447C11.1534 9.13693 11.4077 9.03158 11.673 9.03158C11.9382 9.03158 12.1925 9.13693 12.3801 9.32447C12.5676 9.512 12.673 9.76636 12.673 10.0316C12.673 10.2968 12.5676 10.5511 12.3801 10.7387C12.1925 10.9262 11.9382 11.0316 11.673 11.0316ZM4.33962 11.0316C4.0744 11.0316 3.82005 10.9262 3.63251 10.7387C3.44498 10.5511 3.33962 10.2968 3.33962 10.0316C3.33962 9.76636 3.44498 9.512 3.63251 9.32447C3.82005 9.13693 4.0744 9.03158 4.33962 9.03158C4.60484 9.03158 4.85919 9.13693 5.04673 9.32447C5.23426 9.512 5.33962 9.76636 5.33962 10.0316C5.33962 10.2968 5.23426 10.5511 5.04673 10.7387C4.85919 10.9262 4.60484 11.0316 4.33962 11.0316ZM12.6196 4.36491C12.4863 3.97824 12.113 3.69824 11.673 3.69824H4.33962C3.89962 3.69824 3.52629 3.97824 3.39295 4.36491L2.00629 8.36491V13.6982C2.00629 13.8751 2.07652 14.0446 2.20155 14.1696C2.32657 14.2947 2.49614 14.3649 2.67295 14.3649H3.33962C3.51643 14.3649 3.686 14.2947 3.81102 14.1696C3.93605 14.0446 4.00629 13.8751 4.00629 13.6982V13.0316H12.0063V13.6982C12.0063 13.8751 12.0765 14.0446 12.2015 14.1696C12.3266 14.2947 12.4961 14.3649 12.673 14.3649H13.3396C13.5164 14.3649 13.686 14.2947 13.811 14.1696C13.936 14.0446 14.0063 13.8751 14.0063 13.6982V8.36491L12.6196 4.36491Z" fill="#008485"/>
</svg>
