<svg width="40" height="40" viewBox="0 0 40 40" fill="none" xmlns="http://www.w3.org/2000/svg">
<path fill-rule="evenodd" clip-rule="evenodd" d="M25.8838 27.8036C27.5563 28.6354 29.0127 29.8441 30.1385 31.3347C32.3352 29.3807 33.8845 26.805 34.5838 23.9493C35.2831 21.0937 35.0979 18.0929 34.0526 15.3449C33.0073 12.5969 31.1514 10.2316 28.731 8.56268C26.3106 6.89373 23.44 6 20.5 6C17.56 6 14.6894 6.89373 12.269 8.56268C9.84858 10.2316 7.99267 12.5969 6.94739 15.3449C5.90211 18.0929 5.71685 21.0937 6.41618 23.9493C7.11551 26.805 8.66639 29.3807 10.8631 31.3347C11.9889 29.8441 13.4454 28.6354 15.1178 27.8036C16.7902 26.9719 18.633 26.5398 20.5008 26.5415C22.3687 26.5398 24.2114 26.9719 25.8838 27.8036ZM23.9185 20.2924C24.8249 19.386 25.3341 18.1566 25.3341 16.8747C25.3341 15.5928 24.8249 14.3634 23.9185 13.457C23.0121 12.5505 21.7827 12.0413 20.5008 12.0413C19.2189 12.0413 17.9895 12.5505 17.0831 13.457C16.1767 14.3634 15.6675 15.5928 15.6675 16.8747C15.6675 18.1566 16.1767 19.386 17.0831 20.2924C17.9895 21.1989 19.2189 21.7081 20.5008 21.7081C21.7827 21.7081 23.0121 21.1989 23.9185 20.2924Z" fill="#008485"/>
<path d="M30.1385 31.3347C29.0127 29.8441 27.5563 28.6354 25.8838 27.8036C24.2114 26.9719 22.3687 26.5398 20.5008 26.5415C18.633 26.5398 16.7902 26.9719 15.1178 27.8036C13.4454 28.6354 11.9889 29.8441 10.8631 31.3347M30.1385 31.3347C32.3352 29.3807 33.8845 26.805 34.5838 23.9493C35.2831 21.0937 35.0979 18.0929 34.0526 15.3449C33.0073 12.5969 31.1514 10.2316 28.731 8.56268C26.3106 6.89373 23.44 6 20.5 6C17.56 6 14.6894 6.89373 12.269 8.56268C9.84858 10.2316 7.99267 12.5969 6.94739 15.3449C5.90211 18.0929 5.71685 21.0937 6.41618 23.9493C7.11551 26.805 8.66639 29.3807 10.8631 31.3347M30.1385 31.3347C27.4866 33.7001 24.0543 35.005 20.5008 35C16.9467 35.0054 13.5154 33.7005 10.8631 31.3347M25.3341 16.8747C25.3341 18.1566 24.8249 19.386 23.9185 20.2924C23.0121 21.1989 21.7827 21.7081 20.5008 21.7081C19.2189 21.7081 17.9895 21.1989 17.0831 20.2924C16.1767 19.386 15.6675 18.1566 15.6675 16.8747C15.6675 15.5928 16.1767 14.3634 17.0831 13.457C17.9895 12.5505 19.2189 12.0413 20.5008 12.0413C21.7827 12.0413 23.0121 12.5505 23.9185 13.457C24.8249 14.3634 25.3341 15.5928 25.3341 16.8747Z" stroke="#008485" stroke-width="2" stroke-linecap="round" stroke-linejoin="round"/>
</svg>
