<svg width="40" height="40" viewBox="0 0 40 40" fill="none" xmlns="http://www.w3.org/2000/svg">
<path fill-rule="evenodd" clip-rule="evenodd" d="M18.7776 6.53068C19.1061 6.19088 19.5517 6 20.0163 6C20.4809 6 20.9265 6.19088 21.255 6.53068L33.5196 19.2182C33.7646 19.4717 33.9314 19.7946 33.9989 20.1461C34.0665 20.4977 34.0318 20.862 33.8992 21.1932C33.7667 21.5243 33.5421 21.8074 33.2541 22.0065C32.966 22.2057 32.6274 22.312 32.2809 22.3121H30.5288V33.1871C30.5288 33.6678 30.3442 34.1288 30.0156 34.4687C29.687 34.8087 29.2414 34.9996 28.7767 34.9996H25.2725C24.8079 34.9996 24.3622 34.8087 24.0336 34.4687C23.7051 34.1288 23.5205 33.6678 23.5205 33.1871V27.7496C23.5205 27.2689 23.3359 26.8079 23.0073 26.468C22.6787 26.1281 22.2331 25.9371 21.7684 25.9371H18.2642C17.7995 25.9371 17.3539 26.1281 17.0253 26.468C16.6967 26.8079 16.5121 27.2689 16.5121 27.7496V33.1871C16.5121 33.6678 16.3275 34.1288 15.999 34.4687C15.6704 34.8087 15.2247 34.9996 14.76 34.9996H11.2559C10.7912 34.9996 10.3455 34.8087 10.017 34.4687C9.68839 34.1288 9.50379 33.6678 9.50379 33.1871V22.3121H7.75171C7.40524 22.312 7.06656 22.2057 6.7785 22.0065C6.49044 21.8074 6.26593 21.5243 6.13335 21.1932C6.00077 20.862 5.96607 20.4977 6.03365 20.1461C6.10122 19.7946 6.26803 19.4717 6.51299 19.2182L18.7776 6.53068Z" fill="#008485" stroke="#008485" stroke-width="2"/>
</svg>
