<svg width="40" height="40" viewBox="0 0 40 40" fill="none" xmlns="http://www.w3.org/2000/svg">
<path d="M5.40091 16.5912C5.60079 16.5613 5.80602 16.5455 6.01482 16.5455H34.2334C34.4422 16.5455 34.6474 16.5613 34.8473 16.5912M5.40091 16.5912C4.35648 16.7504 3.41793 17.3088 2.78884 18.1452C2.15975 18.9816 1.89084 20.0285 2.04045 21.0589L3.56988 31.6044C3.70648 32.5467 4.1836 33.4088 4.91367 34.0326C5.64373 34.6563 6.57774 34.9998 7.54425 35H32.7057C33.6723 34.9998 34.6063 34.6563 35.3363 34.0326C36.0664 33.4088 36.5435 32.5467 36.6801 31.6044L38.2095 21.0589C38.3592 20.0285 38.0903 18.9816 37.4612 18.1452C36.8321 17.3088 35.8917 16.7504 34.8473 16.5912M5.40091 16.5912L5.40269 9.95455C5.40269 8.90604 5.8255 7.90045 6.57815 7.15888C7.3308 6.41731 8.35168 6.00047 9.41633 6H16.3389C17.0486 6.00062 17.7291 6.27878 18.2306 6.77333L22.0176 10.4994C22.5191 10.9939 23.1996 11.2721 23.9093 11.2727H30.8319C31.8968 11.2727 32.9182 11.6894 33.6712 12.431C34.4243 13.1726 34.8473 14.1785 34.8473 15.2273V16.5912" stroke="#B5B5B5" stroke-width="2" stroke-linecap="round" stroke-linejoin="round"/>
</svg>
